<svg width="50" height="46" fill="none" xmlns="http://www.w3.org/2000/svg"><path fill-rule="evenodd" clip-rule="evenodd" d="M25.005 0C11.2 0 0 10.488 0 23.416c0 10.343 7.209 19.105 17.029 22.265 1.226.144 1.687-.574 1.687-1.15v-4.02c-6.904 1.436-8.439-3.16-8.439-3.16-1.073-2.73-2.762-3.45-2.762-3.45-2.3-1.435.154-1.435.154-1.435 2.454.144 3.834 2.442 3.834 2.442 2.303 3.59 5.831 2.586 7.212 2.01.152-1.58.918-2.585 1.532-3.16-5.52-.574-11.352-2.585-11.352-11.635 0-2.585.92-4.596 2.608-6.32-.306-.575-1.073-3.017.308-6.177 0 0 2.146-.574 6.903 2.442 1.993-.574 4.14-.718 6.288-.718 2.147 0 4.295.286 6.29.717 4.756-3.016 6.904-2.442 6.904-2.442 1.38 3.16.459 5.602.306 6.177 1.687 1.724 2.618 3.981 2.606 6.32 0 9.05-5.829 10.918-11.352 11.492.921.718 1.687 2.155 1.687 4.31v6.464c0 .574.461 1.292 1.687 1.15 9.973-3.16 17.03-11.924 17.03-22.266C50.007 10.487 38.808.002 25.001.002L25.005 0z" fill="#121212"/></svg>